<svg width="21" height="21" viewBox="0 0 21 21" fill="none" xmlns="http://www.w3.org/2000/svg">
<path d="M10.5103 1.75C5.6925 1.75 1.77055 5.66858 1.7688 10.4863C1.76792 12.0263 2.17129 13.5297 2.93604 14.8545L1.75 19.25L6.32837 18.1682C7.60499 18.8647 9.04213 19.2303 10.5051 19.2312H10.5085C15.3254 19.2312 19.2457 15.3117 19.2483 10.4949C19.25 8.1595 18.3419 5.96377 16.6917 4.31177C15.0414 2.66064 12.8483 1.75088 10.5103 1.75ZM10.5085 3.5C12.3775 3.50087 14.134 4.22957 15.4543 5.54907C16.7747 6.87032 17.5 8.62591 17.4983 10.4932C17.4965 14.3467 14.3621 17.4812 10.5068 17.4812C9.34046 17.4803 8.18511 17.1875 7.16748 16.6318L6.57788 16.3105L5.92676 16.4644L4.2041 16.8711L4.62451 15.3091L4.81421 14.6084L4.4519 13.9795C3.84115 12.9225 3.51792 11.714 3.5188 10.4863C3.52055 6.63458 6.65592 3.5 10.5085 3.5ZM7.41699 6.45312C7.27087 6.45312 7.0346 6.50781 6.83423 6.72656C6.63385 6.94444 6.0686 7.47213 6.0686 8.54663C6.0686 9.62113 6.85132 10.6598 6.96069 10.8059C7.06919 10.9512 8.47153 13.2258 10.6914 14.1008C12.5359 14.828 12.9105 14.6845 13.3113 14.6477C13.712 14.6118 14.6041 14.1205 14.7861 13.6104C14.9681 13.1002 14.9686 12.6614 14.9143 12.5713C14.8601 12.4803 14.7144 12.426 14.4956 12.3167C14.2777 12.2073 13.204 11.68 13.0037 11.6074C12.8033 11.5348 12.6567 11.498 12.5115 11.7168C12.3662 11.9355 11.9488 12.426 11.821 12.5713C11.6933 12.7174 11.5664 12.7371 11.3477 12.6277C11.1289 12.5174 10.4256 12.2862 9.59082 11.5425C8.94157 10.9641 8.50348 10.2505 8.37573 10.0317C8.24886 9.81386 8.36377 9.69419 8.47314 9.58569C8.57114 9.48769 8.69019 9.33063 8.79956 9.20288C8.90806 9.07513 8.94569 8.98412 9.01831 8.83887C9.09094 8.69362 9.05376 8.56543 8.99951 8.45605C8.94526 8.34668 8.52042 7.26819 8.32617 6.83594C8.16255 6.47281 7.98973 6.46438 7.83398 6.45825C7.70711 6.453 7.56224 6.45312 7.41699 6.45312Z" fill="white"/>
</svg>
